<?xml version="1.0" encoding="utf-8"?>
<!-- Generator: Adobe Illustrator 25.2.0, SVG Export Plug-In . SVG Version: 6.00 Build 0)  -->
<svg version="1.1" id="Layer_1" xmlns="http://www.w3.org/2000/svg" xmlns:xlink="http://www.w3.org/1999/xlink" x="0px" y="0px"
	 viewBox="0 0 60 60" style="enable-background:new 0 0 60 60;" xml:space="preserve">
<style type="text/css">
	.st0{fill:#FFFFFF;}
</style>
<g id="BG">
	<rect y="0" width="60" height="60"/>
</g>
<g>
	<path class="st0" d="M34.1,24.1c1,0,1.8,0.8,1.8,1.8v8.6c0,1-0.8,1.8-1.8,1.8h-8.6c-1,0-1.8-0.8-1.8-1.8v-8.6c0-1,0.8-1.8,1.8-1.8
		H34.1 M34.1,19.4h-8.6c-3.6,0-6.5,2.9-6.5,6.5v8.6c0,3.6,2.9,6.5,6.5,6.5h8.6c3.6,0,6.5-2.9,6.5-6.5v-8.6
		C40.6,22.3,37.7,19.4,34.1,19.4L34.1,19.4z"/>
	<g>
		<rect x="14" y="27.7" transform="matrix(0.7071 -0.7071 0.7071 0.7071 -12.4264 30)" class="st0" width="32.1" height="4.7"/>
	</g>
</g>
</svg>
