<?xml version="1.0" encoding="utf-8"?>
<!-- Generator: Adobe Illustrator 25.2.0, SVG Export Plug-In . SVG Version: 6.00 Build 0)  -->
<svg version="1.1" id="Layer_1" xmlns="http://www.w3.org/2000/svg" xmlns:xlink="http://www.w3.org/1999/xlink" x="0px" y="0px"
	 viewBox="0 0 308 560" style="enable-background:new 0 0 308 560;" xml:space="preserve">
<style type="text/css">
	.st0{fill:#FFFFFF;}
</style>
<g>
	<path class="st0" d="M196.7,170.1l-16.2,16.2V214c0,3.9-3.1,7-7,7h-27.7l-16.2,16.2c3.1,1.4,6.6,2.2,10.2,2.2h33.7
		c14,0,25.4-11.4,25.4-25.4v-33.7C198.9,176.7,198.1,173.2,196.7,170.1z"/>
	<path class="st0" d="M132.8,180.4c0-3.9,3.1-7,7-7h27.7l16.2-16.2c-3.1-1.4-6.6-2.2-10.2-2.2h-33.7c-14,0-25.4,11.4-25.4,25.4V214
		c0,3.6,0.8,7.1,2.2,10.2l16.2-16.2V180.4z M131,207.3L117.3,221c-0.7-2.2-1-4.6-1-6.9v-33.7c0-13,10.6-23.6,23.6-23.6h33.7
		c2.4,0,4.7,0.3,6.9,1l-13.7,13.7h-26.9c-4.9,0-8.9,4-8.9,8.9V207.3z"/>
	<path class="st0" d="M148.9,181.5c-4.4,0-7.9,3.6-7.9,7.9v15.5c0,4.4,3.6,7.9,7.9,7.9h15.5c4.4,0,7.9-3.6,7.9-7.9v-15.5
		c0-4.4-3.6-7.9-7.9-7.9H148.9z M170.5,189.5v15.5c0,3.4-2.7,6.1-6.1,6.1h-15.5c-3.4,0-6.1-2.7-6.1-6.1v-15.5c0-3.4,2.7-6.1,6.1-6.1
		h15.5C167.8,183.4,170.5,186.1,170.5,189.5z"/>
</g>
</svg>
