<?xml version="1.0" encoding="utf-8"?>
<!-- Generator: Adobe Illustrator 25.2.0, SVG Export Plug-In . SVG Version: 6.00 Build 0)  -->
<svg version="1.1" id="Layer_1" xmlns="http://www.w3.org/2000/svg" xmlns:xlink="http://www.w3.org/1999/xlink" x="0px" y="0px"
	 viewBox="0 0 308 560" style="enable-background:new 0 0 308 560;" xml:space="preserve">
<style type="text/css">
	.st0{fill:none;stroke:#FFFFFF;stroke-width:2;stroke-miterlimit:10;}
	.st1{fill:#FFFFFF;}
</style>
<g>
	<path class="st0" d="M157.2,178.4V204c3.6-1.4,6.9-3.5,9.8-6.4l26.6-26.6c2.9-2.9,5-6.2,6.4-9.8h-25.6L157.2,178.4z"/>
	<path class="st1" d="M160.1,216.6c-3.1,3.1-8.2,3.1-11.3,0l-22.3-22.3h-26.1c1.4,3.6,3.6,7,6.5,10l27.1,27.1
		c11.3,11.3,29.6,11.3,40.8,0l27.1-27.1c2.9-2.9,5.1-6.3,6.5-10h-26.1L160.1,216.6z"/>
	<path class="st1" d="M151.8,178.4V204c-3.6-1.4-6.9-3.5-9.8-6.4l-26.6-26.6c-2.9-2.9-5-6.2-6.4-9.8h25.6L151.8,178.4z"/>
</g>
</svg>
