<?xml version="1.0" encoding="utf-8"?>
<!-- Generator: Adobe Illustrator 25.2.0, SVG Export Plug-In . SVG Version: 6.00 Build 0)  -->
<svg version="1.1" id="Layer_1" xmlns="http://www.w3.org/2000/svg" xmlns:xlink="http://www.w3.org/1999/xlink" x="0px" y="0px"
	 viewBox="0 0 308 560" style="enable-background:new 0 0 308 560;" xml:space="preserve">
<style type="text/css">
	.st0{fill:#FFFFFF;}
</style>
<g>
	<path class="st0" d="M133.9,181.3c0-3.7,3-6.6,6.6-6.6h26.1l15.3-15.3c-3-1.3-6.2-2-9.7-2h-31.8c-13.2,0-23.9,10.7-23.9,23.9v31.8
		c0,3.4,0.7,6.7,2,9.7l15.3-15.3V181.3z M132.2,206.7l-12.9,12.9c-0.7-2.1-1-4.3-1-6.5v-31.8c0-12.3,10-22.2,22.2-22.2h31.8
		c2.2,0,4.4,0.3,6.5,1L166,173h-25.4c-4.6,0-8.4,3.7-8.4,8.4V206.7z"/>
	<path class="st0" d="M178.9,187v26.1c0,3.7-3,6.6-6.6,6.6h-26.1L130.9,235c3,1.3,6.2,2,9.7,2h31.8c13.2,0,23.9-10.7,23.9-23.9
		v-31.8c0-3.4-0.7-6.7-2-9.7L178.9,187z M194.5,213.1c0,12.3-10,22.2-22.2,22.2h-31.8c-2.2,0-4.4-0.3-6.5-1l12.9-12.9h25.4
		c4.6,0,8.4-3.7,8.4-8.4v-25.4l12.9-12.9c0.7,2.1,1,4.3,1,6.5V213.1z"/>
	<path class="st0" d="M118.7,222.7l-9.5,9.5l12.3,12.3l9.5-9.5C125.5,232.6,121.1,228.2,118.7,222.7z"/>
	<path class="st0" d="M172.3,174.7h-5.6l-32.7,32.7v5.6c0,3.7,3,6.6,6.6,6.6h5.6l32.7-32.7v-5.6C178.9,177.7,176,174.7,172.3,174.7z
		"/>
	<path class="st0" d="M194.2,171.7l10.8-10.8l-12.3-12.3L182,159.4C187.4,161.8,191.8,166.2,194.2,171.7z"/>
</g>
</svg>
