<?xml version="1.0" encoding="utf-8"?>
<!-- Generator: Adobe Illustrator 25.2.0, SVG Export Plug-In . SVG Version: 6.00 Build 0)  -->
<svg version="1.1" id="Layer_1" xmlns="http://www.w3.org/2000/svg" xmlns:xlink="http://www.w3.org/1999/xlink" x="0px" y="0px"
	 viewBox="0 0 308 560" style="enable-background:new 0 0 308 560;" xml:space="preserve">
<style type="text/css">
	.st0{fill:none;}
	.st1{fill:#FFFFFF;}
</style>
<g>
	
		<rect x="132.8" y="180.2" transform="matrix(0.7071 -0.7071 0.7071 0.7071 -91.4817 153.8027)" class="st0" width="14.2" height="14.2"/>
	<path class="st0" d="M137.4,174.8l-3.9-3.9h-18.7c1.1,2,2.4,3.8,4,5.4l8.5,8.5L137.4,174.8z"/>
	
		<rect x="169" y="180.2" transform="matrix(0.7071 -0.7071 0.7071 0.7071 -80.888 179.3781)" class="st0" width="14.2" height="14.2"/>
	<path class="st0" d="M197.1,176.3c1.6-1.6,3-3.4,4-5.4h-18.7l-3.9,3.9l10,10L197.1,176.3z"/>
	<path class="st1" d="M198.4,197.1l-9.7-9.7l9.7-9.7c2.5-2.5,4.3-5.4,5.5-8.5h-22.2l-5.7,5.7l-12.6,12.6l12.6,12.6l5.7,5.7h22.2
		C202.7,202.5,200.9,199.6,198.4,197.1z M182.5,170.9h18.7c-1.1,2-2.4,3.8-4,5.4l-8.5,8.5l-10-10L182.5,170.9z M166,187.3l10-10
		l10,10l-10,10L166,187.3z"/>
	<path class="st1" d="M139.9,174.8l-5.7-5.7h-22.2c1.2,3.1,3,6,5.5,8.5l9.7,9.7l-9.7,9.7c-2.5,2.5-4.3,5.4-5.5,8.5h22.2l5.7-5.7
		l12.6-12.6L139.9,174.8z M118.9,176.3c-1.6-1.6-3-3.4-4-5.4h18.7l3.9,3.9l-10,10L118.9,176.3z M129.9,187.3l10-10l10,10l-10,10
		L129.9,187.3z"/>
	<path class="st1" d="M144.1,171.2l2.6,2.6l6.5,6.5c2.7,2.7,7,2.7,9.6,0l6.5-6.5l2.6-2.6l1.5-1.5c2.7-2.7,2.7-7,0-9.6l-4.1-4.1
		h-22.6l-4.1,4.1c-2.7,2.7-2.7,7,0,9.6L144.1,171.2z"/>
	<path class="st1" d="M153.2,192.4l-4.1,4.1v9.7v32.5l4.1,4.1c2.7,2.7,7,2.7,9.6,0l4.1-4.1v-32.5v-9.7l-4.1-4.1
		C160.1,189.7,155.9,189.7,153.2,192.4z"/>
</g>
</svg>
