<?xml version="1.0" encoding="utf-8"?>
<!-- Generator: Adobe Illustrator 25.2.0, SVG Export Plug-In . SVG Version: 6.00 Build 0)  -->
<svg version="1.1" id="Layer_1" xmlns="http://www.w3.org/2000/svg" xmlns:xlink="http://www.w3.org/1999/xlink" x="0px" y="0px"
	 viewBox="0 0 308 560" style="enable-background:new 0 0 308 560;" xml:space="preserve">
<style type="text/css">
	.st0{fill:#FFFFFF;}
</style>
<g>
	<path class="st0" d="M131.8,183.6c0-4,3.3-7.3,7.3-7.3h28.8l16.9-16.9c-3.3-1.4-6.9-2.3-10.7-2.3h-35c-14.6,0-26.4,11.9-26.4,26.4
		v35c0,3.8,0.8,7.4,2.3,10.7l16.9-16.9V183.6z"/>
	<path class="st0" d="M198.3,172.9l-16.9,16.9v28.8c0,4-3.3,7.3-7.3,7.3h-28.8l-16.9,16.9c3.3,1.4,6.9,2.3,10.7,2.3h35
		c14.6,0,26.4-11.9,26.4-26.4v-35C200.6,179.8,199.8,176.2,198.3,172.9z M198.7,218.6c0,13.5-11,24.5-24.5,24.5h-35
		c-2.5,0-4.9-0.4-7.2-1.1l14.2-14.2h28c5.1,0,9.2-4.1,9.2-9.2v-28l14.2-14.2c0.7,2.3,1.1,4.7,1.1,7.2V218.6z"/>
	<path class="st0" d="M148.6,184.8c-4.6,0-8.3,3.7-8.3,8.3v16.1c0,4.6,3.7,8.3,8.3,8.3h16.1c4.6,0,8.3-3.7,8.3-8.3v-16.1
		c0-4.6-3.7-8.3-8.3-8.3H148.6z M171,193.1v16.1c0,3.5-2.9,6.4-6.4,6.4h-16.1c-3.5,0-6.4-2.9-6.4-6.4v-16.1c0-3.5,2.9-6.4,6.4-6.4
		h16.1C168.2,186.7,171,189.6,171,193.1z"/>
</g>
</svg>
